{"context": " More than 1 year has passed since last update.\n\n\u6e96\u5099\nffprobe\u3067\u97f3\u58f0\u304c\u8a18\u9332\u3055\u308c\u3066\u3044\u308b\u30b9\u30c8\u30ea\u30fc\u30e0\u306emap\u3092\u78ba\u8a8d\u3057\u307e\u3059\n\u5b9f\u884c\u4f8b\n$ ffprobe 00475.MTS\nffprobe version 2.4.git Copyright (c) 2007-2014 the FFmpeg developers\n... (\u7701\u7565) ...\nInput #0, mpegts, from '00475.MTS':\n  Duration: 00:57:33.47, start: 0.567378, bitrate: 8597 kb/s\n  Program 1\n    Stream #0:0[0x1011]: Video: h264 (High) (HDMV / 0x564D4448), yuv420p, 1920x1080 [SAR 1:1 DAR 16:9], 29.97 fps, 29.97 tbr, 90k tbn, 59.94 tbc\n    Stream #0:1[0x1100]: Audio: ac3 (AC-3 / 0x332D4341), 48000 Hz, stereo, fltp, 256 kb/s\n    Stream #0:2[0x1200]: Subtitle: hdmv_pgs_subtitle ([144][0][0][0] / 0x0090), 1920x1080\n\n\u4e0a\u8a18\u306e\u5834\u5408\u3001\"0:1\" \u304c\u97f3\u58f0\u306e\u30b9\u30c8\u30ea\u30fc\u30e0\u3067\u3059\n\n\u52d5\u753b\u30d5\u30a1\u30a4\u30eb\u306b\u8a18\u9332\u3055\u308c\u3066\u3044\u308b\u97f3\u58f0\u304b\u3089MP3\u30d5\u30a1\u30a4\u30eb\u3092\u4f5c\u6210\u3059\u308b\nffmpeg -i \"00471.MTS\" -map 0:1 -vn -ac 2 -ab 256k -acodec libmp3lame -f mp3 \"output.mp3\"\n\nmap\u306e\"0:1\"\u306f\u4e0a\u306e\u624b\u9806\u3067\u78ba\u8a8d\u3057\u305f\u30b9\u30c8\u30ea\u30fc\u30e0\u3092\u6307\u5b9a\u3057\u3066\u304f\u3060\u3055\u3044\n\n\u52d5\u753b\u30d5\u30a1\u30a4\u30eb\u304b\u3089\u97f3\u58f0\u90e8\u5206\u3092WAV\u306b\u66f8\u304d\u51fa\u3059\n\u64ae\u5f71\u5834\u6240\u306e\u72b6\u6cc1\u3084\u30de\u30a4\u30af\u306e\u8abf\u6574\u30df\u30b9\u306b\u3088\u3063\u3066\u97f3\u304c\u5c0f\u3055\u3059\u304e\u305f\u308a\u5927\u304d\u3059\u304e\u305f\u308a\u3057\u305f\u5834\u5408\u306b\u3001\u4e00\u65e6WAV\u306b\u66f8\u304d\u51fa\u3057\u3066audacity\u3067\u8abf\u6574\u3057\u3066\u304b\u3089\u52d5\u753b\u306b\u66f8\u304d\u623b\u3059\u969b\u306b\u4f7f\u7528\u3057\u307e\u3059\nffmpeg -i \"00471.MTS\" -map 0:1 -vn -ac 2 -acodec pcm_s24le -f wav \"output.wav\"\n\n\u97f3\u697dCD\u7528\u306eWAV\u30d5\u30a1\u30a4\u30eb\u3092\u4f5c\u308b\u5834\u5408\u306b\u306f\u4ee5\u4e0b\u306e\u3088\u3046\u306b\u30b5\u30f3\u30d7\u30ea\u30f3\u30b0\u30ec\u30fc\u30c8\u3068\u30d3\u30c3\u30c8\u6570\u3092\u8a2d\u5b9a\u3057\u307e\u3059\nffmpeg -i \"00471.MTS\" -map 0:1 -vn -ac 2 -ar 41000 -acodec pcm_s16le -f wav \"output.wav\"\n\n\n\u52d5\u753b\u30d5\u30a1\u30a4\u30eb\u306e\u97f3\u58f0\u90e8\u5206\u3092WAV\u30d5\u30a1\u30a4\u30eb\u306e\u97f3\u306b\u7f6e\u304d\u63db\u3048\u308b\n\"-i\"\u30aa\u30d7\u30b7\u30e7\u30f3\u3092\u8907\u6570\u4f7f\u7528\u3057\u3066\u3001\u6620\u50cf\u3068\u97f3\u58f0\u306e\u30d5\u30a1\u30a4\u30eb\u3092\u6307\u5b9a\u3057\u307e\u3059\u3002\"-map\"\u30aa\u30d7\u30b7\u30e7\u30f3\u306e\u6700\u521d\u306e\u6570\u5b57\u3067\u6307\u5b9a\u3057\u305f\u30d5\u30a1\u30a4\u30eb\u306e\u9806\u756a\u3092\u793a\u3057\u307e\u3059\u3002\u4ee5\u4e0b\u306e\u4f8b\u306e\u5834\u5408\"0:\"\u304c\"00472.MTS\"\u3092\u6307\u3057\u3001\"1:\"\u304c\"00472.wav\"\u3092\u6307\u3057\u307e\u3059\u3002\u52d5\u753b\u30d5\u30a1\u30a4\u30eb\u306e\u6620\u50cf\u30b9\u30c8\u30ea\u30fc\u30e0(0:0)\u3092copy\u3057\u3066\u3001WAV\u30d5\u30a1\u30a4\u30eb\u306e\u97f3\u58f0\u30b9\u30c8\u30ea\u30fc\u30e0(1:0)\u3092aac\u306b\u30a8\u30f3\u30b3\u30fc\u30c9\u3057\u3066MTS\u30d5\u30a1\u30a4\u30eb\u3092\u4f5c\u6210\u3057\u307e\u3059\nffmpeg -i \"00472.MTS\" -i \"00472.wav\" -map 0:0 -c:v copy -map 1:0 -c:a libfdk_aac -profile:a aac_he -afterburner 1 -b:a 256k -strict experimental \"output.MTS\"\n\n\u52d5\u753b\u30d5\u30a1\u30a4\u30eb\u306e\u9577\u3055\u3068WAV\u30d5\u30a1\u30a4\u30eb\u306e\u9577\u3055\u3092\u63c3\u3048\u3066\u304f\u3060\u3055\u3044\u3002\u305d\u3046\u3057\u306a\u3044\u3068\u3001\u6b63\u3057\u304f\u30b7\u30fc\u30af\u3067\u304d\u306a\u304b\u3063\u305f\u308a\u3001\u6700\u5f8c\u307e\u3067\u518d\u751f\u3067\u304d\u306a\u3044\u30d5\u30a1\u30a4\u30eb\u304c\u51fa\u6765\u4e0a\u304c\u3063\u3066\u3057\u307e\u3044\u307e\u3059\u3002\n# \u6e96\u5099\n\nffprobe\u3067\u97f3\u58f0\u304c\u8a18\u9332\u3055\u308c\u3066\u3044\u308b\u30b9\u30c8\u30ea\u30fc\u30e0\u306emap\u3092\u78ba\u8a8d\u3057\u307e\u3059\n\n\u5b9f\u884c\u4f8b\n\n```\n$ ffprobe 00475.MTS\nffprobe version 2.4.git Copyright (c) 2007-2014 the FFmpeg developers\n... (\u7701\u7565) ...\nInput #0, mpegts, from '00475.MTS':\n  Duration: 00:57:33.47, start: 0.567378, bitrate: 8597 kb/s\n  Program 1\n    Stream #0:0[0x1011]: Video: h264 (High) (HDMV / 0x564D4448), yuv420p, 1920x1080 [SAR 1:1 DAR 16:9], 29.97 fps, 29.97 tbr, 90k tbn, 59.94 tbc\n    Stream #0:1[0x1100]: Audio: ac3 (AC-3 / 0x332D4341), 48000 Hz, stereo, fltp, 256 kb/s\n    Stream #0:2[0x1200]: Subtitle: hdmv_pgs_subtitle ([144][0][0][0] / 0x0090), 1920x1080\n```\n\n\u4e0a\u8a18\u306e\u5834\u5408\u3001\"0:1\" \u304c\u97f3\u58f0\u306e\u30b9\u30c8\u30ea\u30fc\u30e0\u3067\u3059\n\n# \u52d5\u753b\u30d5\u30a1\u30a4\u30eb\u306b\u8a18\u9332\u3055\u308c\u3066\u3044\u308b\u97f3\u58f0\u304b\u3089MP3\u30d5\u30a1\u30a4\u30eb\u3092\u4f5c\u6210\u3059\u308b\n\n```\nffmpeg -i \"00471.MTS\" -map 0:1 -vn -ac 2 -ab 256k -acodec libmp3lame -f mp3 \"output.mp3\"\n```\n\nmap\u306e\"0:1\"\u306f\u4e0a\u306e\u624b\u9806\u3067\u78ba\u8a8d\u3057\u305f\u30b9\u30c8\u30ea\u30fc\u30e0\u3092\u6307\u5b9a\u3057\u3066\u304f\u3060\u3055\u3044\n\n# \u52d5\u753b\u30d5\u30a1\u30a4\u30eb\u304b\u3089\u97f3\u58f0\u90e8\u5206\u3092WAV\u306b\u66f8\u304d\u51fa\u3059\n\n\u64ae\u5f71\u5834\u6240\u306e\u72b6\u6cc1\u3084\u30de\u30a4\u30af\u306e\u8abf\u6574\u30df\u30b9\u306b\u3088\u3063\u3066\u97f3\u304c\u5c0f\u3055\u3059\u304e\u305f\u308a\u5927\u304d\u3059\u304e\u305f\u308a\u3057\u305f\u5834\u5408\u306b\u3001\u4e00\u65e6WAV\u306b\u66f8\u304d\u51fa\u3057\u3066audacity\u3067\u8abf\u6574\u3057\u3066\u304b\u3089\u52d5\u753b\u306b\u66f8\u304d\u623b\u3059\u969b\u306b\u4f7f\u7528\u3057\u307e\u3059\n\n```\nffmpeg -i \"00471.MTS\" -map 0:1 -vn -ac 2 -acodec pcm_s24le -f wav \"output.wav\"\n```\n\n\u97f3\u697dCD\u7528\u306eWAV\u30d5\u30a1\u30a4\u30eb\u3092\u4f5c\u308b\u5834\u5408\u306b\u306f\u4ee5\u4e0b\u306e\u3088\u3046\u306b\u30b5\u30f3\u30d7\u30ea\u30f3\u30b0\u30ec\u30fc\u30c8\u3068\u30d3\u30c3\u30c8\u6570\u3092\u8a2d\u5b9a\u3057\u307e\u3059\n\n```\nffmpeg -i \"00471.MTS\" -map 0:1 -vn -ac 2 -ar 41000 -acodec pcm_s16le -f wav \"output.wav\"\n```\n\n# \u52d5\u753b\u30d5\u30a1\u30a4\u30eb\u306e\u97f3\u58f0\u90e8\u5206\u3092WAV\u30d5\u30a1\u30a4\u30eb\u306e\u97f3\u306b\u7f6e\u304d\u63db\u3048\u308b\n\n\"-i\"\u30aa\u30d7\u30b7\u30e7\u30f3\u3092\u8907\u6570\u4f7f\u7528\u3057\u3066\u3001\u6620\u50cf\u3068\u97f3\u58f0\u306e\u30d5\u30a1\u30a4\u30eb\u3092\u6307\u5b9a\u3057\u307e\u3059\u3002\"-map\"\u30aa\u30d7\u30b7\u30e7\u30f3\u306e\u6700\u521d\u306e\u6570\u5b57\u3067\u6307\u5b9a\u3057\u305f\u30d5\u30a1\u30a4\u30eb\u306e\u9806\u756a\u3092\u793a\u3057\u307e\u3059\u3002\u4ee5\u4e0b\u306e\u4f8b\u306e\u5834\u5408\"0:\"\u304c\"00472.MTS\"\u3092\u6307\u3057\u3001\"1:\"\u304c\"00472.wav\"\u3092\u6307\u3057\u307e\u3059\u3002\u52d5\u753b\u30d5\u30a1\u30a4\u30eb\u306e\u6620\u50cf\u30b9\u30c8\u30ea\u30fc\u30e0(0:0)\u3092copy\u3057\u3066\u3001WAV\u30d5\u30a1\u30a4\u30eb\u306e\u97f3\u58f0\u30b9\u30c8\u30ea\u30fc\u30e0(1:0)\u3092aac\u306b\u30a8\u30f3\u30b3\u30fc\u30c9\u3057\u3066MTS\u30d5\u30a1\u30a4\u30eb\u3092\u4f5c\u6210\u3057\u307e\u3059\n\n```\nffmpeg -i \"00472.MTS\" -i \"00472.wav\" -map 0:0 -c:v copy -map 1:0 -c:a libfdk_aac -profile:a aac_he -afterburner 1 -b:a 256k -strict experimental \"output.MTS\"\n```\n\n\u52d5\u753b\u30d5\u30a1\u30a4\u30eb\u306e\u9577\u3055\u3068WAV\u30d5\u30a1\u30a4\u30eb\u306e\u9577\u3055\u3092\u63c3\u3048\u3066\u304f\u3060\u3055\u3044\u3002\u305d\u3046\u3057\u306a\u3044\u3068\u3001\u6b63\u3057\u304f\u30b7\u30fc\u30af\u3067\u304d\u306a\u304b\u3063\u305f\u308a\u3001\u6700\u5f8c\u307e\u3067\u518d\u751f\u3067\u304d\u306a\u3044\u30d5\u30a1\u30a4\u30eb\u304c\u51fa\u6765\u4e0a\u304c\u3063\u3066\u3057\u307e\u3044\u307e\u3059\u3002\n", "tags": ["ffmpeg"]}